<svg xmlns="http://www.w3.org/2000/svg" viewBox="0 0 232 64" role="img" aria-labelledby="title desc">
  <title id="title">Dopsy</title>
  <desc id="desc">Dopsy logotype with a diagnostic container mark</desc>
  <rect x="1" y="1" width="62" height="62" rx="15" fill="#0B241C" stroke="#1B4838" stroke-width="2"/>
  <path d="M19.5 17.5v29h12.75C41.5 46.5 49 40.01 49 32S41.5 17.5 32.25 17.5H19.5Z" fill="none" stroke="#7EE2B8" stroke-width="4.5" stroke-linecap="round" stroke-linejoin="round"/>
  <path d="M27.5 27.5h12M27.5 36.5h12" fill="none" stroke="#7EE2B8" stroke-width="3" stroke-linecap="round"/>
  <g fill="none" stroke="#0B241C" stroke-width="5.2" stroke-linecap="round" stroke-linejoin="round">
    <path d="M88 29.5A11.8 11.8 0 1 0 88 46.5M89 16v34"/>
    <circle cx="111" cy="38" r="12"/>
    <path d="M135 59V27M136 30.5A11.8 11.8 0 1 1 136 45.5"/>
    <path d="M189.5 30.5c-3-3-7-4.5-11-4.5-5.2 0-9 2.6-9 6.5 0 8.8 20.5 3.1 20.5 11.3 0 4.1-4.4 6.7-9.7 6.7-4.5 0-8.7-1.6-11.3-4.5"/>
    <path d="m202 27 10 22M223 27l-14 32"/>
  </g>
</svg>
